<svg width="444" height="444" viewBox="0 0 444 444" fill="none" xmlns="http://www.w3.org/2000/svg">
<g clip-path="url(#clip0)">
<path d="M397.475 444H46.5246C20.8125 444 0 423.188 0 397.475V46.5246C0 20.8125 20.8125 0 46.5246 0H397.519C423.188 0 444 20.8125 444 46.5246V397.519C444 423.188 423.188 444 397.475 444Z" fill="#ADE5EF"/>
<path d="M444 314.052H416.597C416.597 262.064 396.348 213.198 359.623 176.473C322.854 139.704 273.988 119.498 222 119.498C170.012 119.498 121.146 139.747 84.4207 176.473C47.652 213.241 27.4031 262.107 27.4031 314.052H0C0 254.736 23.1105 199.02 65.0391 157.091C106.968 115.163 162.728 92.052 222 92.052C281.316 92.052 337.032 115.163 378.961 157.091C420.889 199.02 444 254.78 444 314.052Z" fill="#93278F"/>
<path d="M421.15 314.052H393.747C393.747 268.178 375.883 225.035 343.45 192.602C311.017 160.17 267.874 142.305 222 142.305C176.126 142.305 132.983 160.17 100.551 192.602C68.1178 225.035 50.2537 268.178 50.2537 314.052H22.8506C22.8506 260.85 43.5764 210.857 81.1689 173.221C118.805 135.628 168.798 114.902 222 114.902C275.202 114.902 325.196 135.628 362.831 173.221C400.424 210.857 421.15 260.893 421.15 314.052Z" fill="#29ABE2"/>
<path d="M398.342 314.052H370.939C370.939 274.292 355.46 236.872 327.319 208.776C299.179 180.635 261.76 165.156 221.999 165.156C182.239 165.156 144.82 180.635 116.723 208.776C88.5826 236.916 73.1033 274.292 73.1033 314.052H45.7002C45.7002 266.964 64.0412 222.694 97.3412 189.394C130.641 156.094 174.911 137.753 221.999 137.753C269.088 137.753 313.358 156.094 346.658 189.394C379.958 222.694 398.342 266.964 398.342 314.052Z" fill="#7AC943"/>
<path d="M375.492 314.052H348.089C348.089 280.362 334.995 248.709 311.147 224.905C287.343 201.101 255.69 187.963 222 187.963C188.31 187.963 156.657 201.057 132.853 224.905C109.049 248.709 95.9109 280.362 95.9109 314.052H68.5078C68.5078 273.077 84.4641 234.531 113.471 205.523C142.479 176.516 180.982 160.56 222 160.56C263.018 160.56 301.521 176.516 330.529 205.523C359.536 234.531 375.492 273.077 375.492 314.052Z" fill="#FFFF00"/>
<path d="M352.642 314.052H325.239C325.239 286.475 314.486 260.547 295.017 241.035C275.506 221.523 249.577 210.813 222 210.813C194.424 210.813 168.495 221.566 148.983 241.078C129.471 260.59 118.762 286.519 118.762 314.095H91.3584C91.3584 279.191 104.93 246.411 129.601 221.696C154.316 197.025 187.096 183.41 222 183.41C256.904 183.41 289.684 196.982 314.399 221.653C339.07 246.368 352.642 279.191 352.642 314.052Z" fill="#F7931E"/>
<path d="M329.791 314.052H302.388C302.388 269.739 266.313 233.664 221.999 233.664C177.686 233.664 141.611 269.739 141.611 314.052H114.208C114.208 285.261 125.438 258.205 145.774 237.826C166.153 217.447 193.209 206.26 221.999 206.26C250.79 206.26 277.846 217.491 298.225 237.826C318.604 258.205 329.791 285.261 329.791 314.052Z" fill="#C1272D"/>
<path d="M266.755 232.189H177.521V144.17C177.521 119.542 197.51 99.553 222.138 99.553C246.766 99.553 266.755 119.542 266.755 144.17V232.189Z" fill="#563815"/>
<path d="M297.713 170.966C296.152 169.968 295.675 167.887 296.673 166.283L300.792 159.822C301.789 158.261 303.87 157.784 305.475 158.782C307.035 159.779 307.512 161.86 306.515 163.465L302.396 169.925C301.399 171.486 299.317 171.963 297.713 170.966Z" fill="#E09D7C"/>
<path d="M269.357 247.322L261.639 242.422C258.43 240.384 257.52 236.135 259.558 232.97L308.727 155.877C312.109 150.544 319.177 148.983 324.51 152.365C329.843 155.747 331.404 162.814 328.022 168.147L278.809 245.197C276.771 248.406 272.522 249.36 269.357 247.322Z" fill="#F7C4A8"/>
<path d="M260.815 267.44L247.027 258.639C243.644 256.471 242.647 252.005 244.815 248.623L260.858 223.431C262.636 220.612 266.365 219.789 269.183 221.566L285.053 231.669C287.871 233.447 288.695 237.176 286.917 239.994L270.874 265.186C268.663 268.611 264.197 269.608 260.815 267.44Z" fill="#A82938"/>
<path d="M146.562 170.966C148.123 169.969 148.6 167.887 147.603 166.283L143.484 159.823C142.487 158.262 140.405 157.785 138.801 158.782C137.24 159.779 136.763 161.86 137.76 163.465L141.88 169.925C142.877 171.486 144.958 171.963 146.562 170.966Z" fill="#E09D7C"/>
<path d="M174.919 247.322L182.637 242.422C185.846 240.384 186.757 236.135 184.719 232.97L135.549 155.833C132.167 150.5 125.1 148.939 119.766 152.321C114.433 155.703 112.872 162.771 116.254 168.104L165.424 245.197C167.505 248.406 171.754 249.36 174.919 247.322Z" fill="#F7C4A8"/>
<path d="M183.461 267.44L197.249 258.639C200.631 256.471 201.628 252.005 199.46 248.623L183.417 223.431C181.64 220.612 177.911 219.789 175.092 221.566L159.266 231.712C156.448 233.49 155.624 237.219 157.402 240.037L173.445 265.229C175.613 268.611 180.079 269.608 183.461 267.44Z" fill="#A82938"/>
<path d="M229.509 167.627H214.724V260.676H229.509V167.627Z" fill="#F7C4A8"/>
<path d="M179.343 367.254H264.63C265.801 367.254 266.755 366.3 266.755 365.129V250.704C266.755 230.498 250.365 214.152 230.203 214.152H214.073C193.868 214.152 177.521 230.542 177.521 250.704V365.433C177.521 366.43 178.345 367.254 179.343 367.254Z" fill="#C1272D"/>
<path d="M222.138 203.052C202.019 203.052 185.716 186.749 185.716 166.63V146.424C185.716 126.306 202.019 110.002 222.138 110.002C242.256 110.002 258.56 126.306 258.56 146.424V166.63C258.56 186.749 242.256 203.052 222.138 203.052Z" fill="#F7C4A8"/>
<path d="M242.3 173.481C247.186 173.481 251.146 168.317 251.146 161.947C251.146 155.577 247.186 150.414 242.3 150.414C237.415 150.414 233.455 155.577 233.455 161.947C233.455 168.317 237.415 173.481 242.3 173.481Z" fill="white"/>
<path d="M242.3 169.622C245.557 169.622 248.197 166.186 248.197 161.947C248.197 157.709 245.557 154.273 242.3 154.273C239.043 154.273 236.403 157.709 236.403 161.947C236.403 166.186 239.043 169.622 242.3 169.622Z" fill="#563815"/>
<path d="M242.301 166.066C244.049 166.066 245.466 164.222 245.466 161.947C245.466 159.672 244.049 157.828 242.301 157.828C240.553 157.828 239.136 159.672 239.136 161.947C239.136 164.222 240.553 166.066 242.301 166.066Z" fill="black"/>
<path d="M243.428 161.947C244.074 161.947 244.598 161.268 244.598 160.429C244.598 159.591 244.074 158.912 243.428 158.912C242.781 158.912 242.257 159.591 242.257 160.429C242.257 161.268 242.781 161.947 243.428 161.947Z" fill="white"/>
<path d="M201.976 173.481C206.861 173.481 210.821 168.317 210.821 161.947C210.821 155.577 206.861 150.414 201.976 150.414C197.091 150.414 193.131 155.577 193.131 161.947C193.131 168.317 197.091 173.481 201.976 173.481Z" fill="white"/>
<path d="M201.976 169.622C205.233 169.622 207.873 166.186 207.873 161.947C207.873 157.709 205.233 154.273 201.976 154.273C198.719 154.273 196.079 157.709 196.079 161.947C196.079 166.186 198.719 169.622 201.976 169.622Z" fill="#563815"/>
<path d="M201.977 166.066C203.725 166.066 205.142 164.222 205.142 161.947C205.142 159.672 203.725 157.828 201.977 157.828C200.229 157.828 198.812 159.672 198.812 161.947C198.812 164.222 200.229 166.066 201.977 166.066Z" fill="black"/>
<path d="M203.146 161.947C203.793 161.947 204.317 161.268 204.317 160.429C204.317 159.591 203.793 158.912 203.146 158.912C202.5 158.912 201.976 159.591 201.976 160.429C201.976 161.268 202.5 161.947 203.146 161.947Z" fill="white"/>
<path d="M262.809 152.191H181.467V148.376C181.467 125.916 199.678 107.705 222.138 107.705C244.598 107.705 262.809 125.916 262.809 148.376V152.191Z" fill="#563815"/>
<g opacity="0.5">
<path opacity="0.5" d="M246.376 183.02C248.292 183.02 249.845 181.467 249.845 179.551C249.845 177.635 248.292 176.082 246.376 176.082C244.46 176.082 242.907 177.635 242.907 179.551C242.907 181.467 244.46 183.02 246.376 183.02Z" fill="#E5AE93"/>
<path opacity="0.5" d="M197.9 183.02C199.816 183.02 201.369 181.467 201.369 179.551C201.369 177.635 199.816 176.082 197.9 176.082C195.985 176.082 194.432 177.635 194.432 179.551C194.432 181.467 195.985 183.02 197.9 183.02Z" fill="#E5AE93"/>
</g>
<path d="M227.254 194.597H218.322C214.637 194.597 211.688 191.605 211.688 187.963C211.688 186.619 212.772 185.491 214.16 185.491H231.46C232.804 185.491 233.932 186.575 233.932 187.963C233.888 191.605 230.897 194.597 227.254 194.597Z" fill="#531614"/>
<path d="M233.888 187.096C233.888 187.356 233.888 187.659 233.845 187.919H211.732C211.688 187.659 211.688 187.399 211.688 187.096C211.688 186.228 212.382 185.491 213.293 185.491H232.328C233.151 185.491 233.888 186.185 233.888 187.096Z" fill="#531614"/>
<path d="M233.237 190.131C232.847 190.955 232.327 191.735 231.677 192.385C230.332 193.73 228.425 194.597 226.343 194.597H220.533C220.533 191.475 224.045 188.96 228.381 188.96C230.202 188.917 231.893 189.394 233.237 190.131Z" fill="#88282C"/>
<path d="M233.237 190.131C232.847 190.955 232.327 191.735 231.677 192.385C230.332 193.73 228.425 194.597 226.343 194.597H220.533C220.533 191.475 224.045 188.96 228.381 188.96C230.202 188.917 231.893 189.394 233.237 190.131Z" fill="#88282C"/>
<path d="M233.888 187.096C233.888 187.356 233.888 187.659 233.845 187.919H211.732C211.688 187.659 211.688 187.399 211.688 187.096C211.688 186.228 212.382 185.491 213.293 185.491H232.328C233.151 185.491 233.888 186.185 233.888 187.096Z" fill="white"/>
<path d="M223.179 178.12H221.097C219.493 178.12 218.192 176.819 218.192 175.215C218.192 173.611 219.493 172.31 221.097 172.31H223.179C224.783 172.31 226.084 173.611 226.084 175.215C226.084 176.819 224.783 178.12 223.179 178.12Z" fill="#E09D7C"/>
<path d="M269.66 146.858H175.44L183.288 103.932C184.242 98.7727 188.752 95.0004 193.998 95.0004H211.906C213.727 95.0004 215.505 95.5641 217.022 96.6047C219.971 98.6859 223.916 98.7727 226.951 96.7781L227.515 96.3879C228.946 95.434 230.637 94.957 232.328 94.957H250.972C256.219 94.957 260.772 98.7293 261.682 103.889L269.66 146.858Z" fill="#E1BE7F"/>
<path d="M150.639 136.018H294.462C297.584 136.018 300.098 138.533 300.098 141.655V152.191H145.002V141.655C145.002 138.533 147.517 136.018 150.639 136.018Z" fill="#E1BE7F"/>
<path d="M267.882 136.018H177.435L179.733 123.357H265.541L267.882 136.018Z" fill="#C1272D"/>
<path fill-rule="evenodd" clip-rule="evenodd" d="M444 316.052V407.627C444 425.838 431.339 441.057 414.299 445.003H279.625C276.589 445.003 273.598 444.743 270.693 444.222C267.788 444.743 264.796 445.003 261.761 445.003H29.7012C12.6609 441.057 0 425.838 0 407.627V311.933C0 311.716 0.0433594 311.499 0.0867188 311.326C10.3629 281.061 39.0234 259.295 72.757 259.295C95.3473 259.295 115.639 269.051 129.645 284.573C130.252 285.224 131.249 285.397 131.986 284.877C142.999 277.809 156.137 273.69 170.229 273.69C199.15 273.69 223.995 291.034 234.964 315.879C235.355 316.746 236.309 317.179 237.219 316.876C243.333 315.011 249.793 313.971 256.514 313.971C265.706 313.971 274.421 315.879 282.356 319.261C283.31 319.651 284.438 319.217 284.828 318.22C295.234 292.074 320.773 273.647 350.604 273.647C379.525 273.647 404.37 290.99 415.383 315.835C415.773 316.702 416.727 317.136 417.594 316.833C423.708 314.968 430.168 313.927 436.889 313.927C438.71 313.927 440.488 314.014 442.266 314.144C443.263 314.274 444 315.055 444 316.052Z" fill="white"/>
<path d="M260.72 265.143L255.777 260.503L261.848 252.352L267.441 256.254L260.72 265.143Z" fill="#EF4B3A"/>
<path d="M191.301 247.235L186.358 242.596L192.342 234.401L197.935 238.303L191.301 247.235Z" fill="#7FD8F4"/>
<path d="M166.239 292.719L165.242 287.169L176.776 281.663L178.727 286.692L166.239 292.719Z" fill="#FFDC4A"/>
<path d="M81.9057 306.811L78.3936 301.608L86.892 294.323L91.1846 298.833L81.9057 306.811Z" fill="#FFDC4A"/>
<path d="M310.366 217.577L307.981 212.201L317.911 205.61L321.206 210.423L310.366 217.577Z" fill="#EF4B3A"/>
<path d="M167.671 399.774L165.807 394.31L176.473 388.11L179.248 393.009L167.671 399.774Z" fill="#FFDC4A"/>
<path d="M385.074 139.747L376.705 137.579L374.277 128.734L382.472 130.078L385.074 139.747Z" fill="#FF8133"/>
<path d="M374.451 270.563L366.082 268.395L363.654 259.549L371.849 260.893L374.451 270.563Z" fill="#FF8133"/>
<path d="M357.801 346.658L349.433 344.49L347.005 335.645L355.2 336.989L357.801 346.658Z" fill="#FF8133"/>
<path d="M265.837 324.848L260.33 320.426L265.49 312.057L271.56 315.7L265.837 324.848Z" fill="#7FD8F4"/>
<path d="M131.248 212.548L122.36 213.415L112.994 206.521L121.102 205.09L131.248 212.548Z" fill="#FF8133"/>
<path d="M276.763 154.706L272.08 149.893L278.974 141.915L284.091 146.034L276.763 154.706Z" fill="#FF8133"/>
<path d="M96.5605 162.641L105.102 160.82L108.268 152.061L99.9859 153.059L96.5605 162.641Z" fill="#EF4B3A"/>
<path d="M150.326 161.08L159.302 160.82L166.456 152.928L158.044 152.495L150.326 161.08Z" fill="#7FD8F4"/>
<path d="M288.73 95.8674L297.706 95.6072L304.86 87.7158L296.448 87.2822L288.73 95.8674Z" fill="#7FD8F4"/>
<path d="M275.289 357.975L281.229 362.224L295.668 360.707L290.942 356.371L275.289 357.975Z" fill="#7FD8F4"/>
<path d="M58.2748 252.568L65.0389 248.883L62.6541 239.994L55.6299 242.899L58.2748 252.568Z" fill="#FFDC4A"/>
<path d="M111.347 99.423L119.888 97.4719L122.62 88.6699L114.425 89.8406L111.347 99.423Z" fill="#EF4B3A"/>
<path d="M145.905 16.3464L152.669 12.6609L150.284 3.77222L143.26 6.67729L145.905 16.3464Z" fill="#FFDC4A"/>
<path d="M158.608 349.737L163.942 354.246L178.467 353.466L174.435 348.913L158.608 349.737Z" fill="#FF8133"/>
<path d="M167.411 66.4697L174.175 62.7842L171.79 53.8955L164.766 56.8006L167.411 66.4697Z" fill="#7FD8F4"/>
<path d="M227.29 45.3106L234.054 41.6251L231.626 32.7798L224.602 35.6849L227.29 45.3106Z" fill="#FF8133"/>
</g>
<defs>
<clipPath id="clip0">
<rect width="444" height="444" fill="white"/>
</clipPath>
</defs>
</svg>
