<svg width="180" height="180" viewBox="0 0 180 180" fill="none" xmlns="http://www.w3.org/2000/svg">
<circle cx="90" cy="90" r="88" fill="#666666" stroke="white" stroke-width="4"/>
<g clip-path="url(#clip0)">
<path d="M108.968 64.662C108.968 77.6953 100.302 87.9155 89.9998 87.9155C79.697 87.9155 71.0312 77.6953 71.0312 64.662C71.0312 57.9877 71.7741 52.1846 74.4658 48.0583C77.0932 44.0304 81.7159 41.4082 89.9998 41.4082C98.2836 41.4082 102.906 44.0304 105.533 48.0582C108.225 52.1846 108.968 57.9877 108.968 64.662Z" fill="#C4C4C4" stroke="#C4C4C4" stroke-width="2"/>
<path d="M52.2842 125.948C52.2808 125.131 52.2774 125.718 52.2842 125.948V125.948Z" fill="black"/>
<path d="M127.714 126.586C127.725 126.363 127.718 125.035 127.714 126.586V126.586Z" fill="black"/>
<path d="M125.735 123.061V128.571H126.396C126.212 128.809 125.96 129.107 125.626 129.45C124.681 130.42 123.069 131.756 120.456 133.107C115.228 135.812 105.969 138.592 89.9998 138.592C74.0302 138.592 64.7708 135.812 59.5429 133.107C56.9303 131.756 55.3187 130.42 54.3733 129.45C54.0392 129.107 53.7874 128.809 53.6033 128.571H54.2653V122.143H53.3901C53.6815 111.963 54.7094 105.544 58.0133 101.134C61.4523 96.5436 67.5296 93.9227 78.7014 91.8593C78.7929 91.9515 78.8996 92.0547 79.0216 92.1668C79.4944 92.6006 80.1999 93.1671 81.1561 93.7297C83.0746 94.8586 85.9819 95.9594 89.9998 95.9594C94.0176 95.9594 96.9248 94.8586 98.8432 93.7297C99.7993 93.1671 100.505 92.6006 100.977 92.1667C101.1 92.0547 101.206 91.9515 101.298 91.8593C112.595 93.9458 118.683 96.6025 122.101 101.29C125.413 105.831 126.38 112.475 126.634 123.061H125.735Z" fill="#C4C4C4" stroke="#C4C4C4" stroke-width="2"/>
</g>
<defs>
<clipPath id="clip0">
<rect width="99.1837" height="99.1837" fill="white" transform="translate(40.4082 40.4082)"/>
</clipPath>
</defs>
</svg>
